<svg height="674.00456" viewBox="0 0 996 674.00456" width="996" xmlns="http://www.w3.org/2000/svg"><circle cx="138.92463" cy="525.44909" fill="#f2f2f2" r="138.92463"/><path d="m408.97863 700.06688a293.53529 293.53529 0 1 1 207.55981-85.97449 291.6131 291.6131 0 0 1 -207.55981 85.97449zm0-584.82844c-160.61958 0-291.29359 130.67347-291.29359 291.29359s130.674 291.29413 291.29359 291.29413 291.29359-130.67401 291.29359-291.29416-130.67402-291.29356-291.29359-291.29356z" fill="#2f2e41" transform="translate(-102 -112.99772)"/><path d="m459.908 386.443-.033.017-144.674 80.559-158.422-79.211-2.73-1.365 8.222-164.44 143.063-101.953 1.579.987 148.062 92.744z" fill="#58bd98"/><path d="m459.875 386.46-144.674 80.559-158.422-79.211 140.333-98.384z" opacity=".3"/><path d="m459.908 386.443-162.796-97.019 9.801-168.387 148.062 92.744z" opacity=".1"/><g fill="#f2f2f2"><path d="m160.165 272.745-.804-1.138 144.66-102.107 152.813 95.809-.74 1.181-152.028-95.317z"/><path d="m157.361 328.61-.782-1.152 143.926-97.715.377.214 156.081 88.46-.688 1.212-155.704-88.247z"/><path d="m212.276 415.965-.734-1.184 145.053-89.881v-172.306h1.393v173.082z"/><path d="m269.209 444.428-.74-1.18 139.669-87.603v-170.766h1.393v171.537z"/><path d="m407.612 415.982-162.436-90.252.023-.434 8.551-169.015 1.391.071-8.529 168.581 161.677 89.831z"/><path d="m356.507 444.455-160.612-84.167.025-.447 9.468-169.099 1.391.078-9.442 168.651 159.817 83.75z"/></g><circle cx="487.35658" cy="63.86079" fill="#3f3d56" r="56.018"/><path d="m32.49044 662.13328h963.50956v2.24072h-963.50956z" fill="#2f2e41"/><path d="m986.13709 473.81218 12.80452 35.07325s-13.36124 40.08372 0 41.19716 15.03139-38.41359 15.03139-38.41359l-7.23733-42.31059z" fill="#ffb9b9" transform="translate(-102 -112.99772)"/><path d="m992.261 359.12821 9.46421 9.46422v45.09418s5.56718 8.35077 4.45375 10.57764-2.22688 2.22688-1.11344 3.897 2.22687 2.78359 1.11344 3.897a4.17537 4.17537 0 0 0 0 5.01046c1.11343 1.11344 3.34031 2.7836 1.67015 4.45375s-3.897.55672-1.67015 6.68062 6.1239 7.79406 5.01046 10.02093-1.11343 7.79406-1.11343 7.79406l-23.93889 3.34031-5.01047-62.90917z" fill="#d0cde1" transform="translate(-102 -112.99772)"/><path d="m909.189 352.464-27.836 1.113 1.114 11.691 24.496-4.454z" fill="#3f3d56"/><path d="m832.641 187.953-3.341 33.404 33.96 5.01 2.505-19.207 2.506-19.207z" fill="#ffb9b9"/><path d="m832.641 187.953-3.341 33.404 33.96 5.01 2.505-19.207 2.506-19.207z" opacity=".1"/><path d="m860.87547 459.89422 18.92843 40.64044s3.34031 18.92842 8.35077 19.48514 10.02093-19.48514 10.02093-19.48514l-6.6806-10.57766-7.79406-30.06279z" fill="#ffb9b9" transform="translate(-102 -112.99772)"/><path d="m900.40247 496.63763-15.58811 24.49561s-15.03136 233.26496-12.80452 231.59476 9.46421-2.22687 12.2478-6.68062 20.04186 0 20.04186 0l10.02093-10.57764v-8.35074c0-1.67015 20.04186-129.15864 20.04186-129.15864v32.28964s-6.1239 118.581 3.897 117.46756 30.6195-7.79406 30.6195-7.79406 29.50607-221.57388 20.59858-229.92465-12.80452-27.2792-12.80452-27.2792z" fill="#2f2e41" transform="translate(-102 -112.99772)"/><circle cx="851.29071" cy="172.08696" fill="#ffb9b9" r="26.72248"/><path d="m893.72185 339.64307-3.897-2.22687s-17.25827 11.69109-22.82545 37.85684-9.46422 32.84638-9.46422 32.84638-5.56718 1.11344-1.67015 5.01047 3.897 3.34031.55672 5.56718-5.56718-2.22687-3.34031 2.22687 5.01046 3.34031 2.78359 6.12391-6.1239 2.78359-3.897 5.01046-2.22687 7.23734.55672 9.46421 3.897 2.78359 3.897 6.68062a19.71444 19.71444 0 0 0 1.11343 6.68062h28.94936s-5.56719-10.57765-3.897-12.80452 2.22687-4.45375 1.11343-5.56718-4.45374 1.11343-1.11343-1.67016 4.45374-1.11343 3.34031-4.45374-3.34031-1.67016-1.11344-3.34031 3.897-1.11344 2.78359-2.7836-3.34031-1.67015-1.11343-2.78359 3.897 0 3.34031-2.78359-1.11344-1.67015 0-2.78359 12.80452-38.97028 12.80452-40.08372-8.90755-36.18669-8.90755-36.18669z" fill="#d0cde1" transform="translate(-102 -112.99772)"/><path d="m786.155 339.659-35.074 2.227 8.908 8.351 24.496.557z" fill="#3f3d56"/><path d="m898.1756 494.41076-7.23734 13.36124s21.712 2.78359 29.50607 5.56718 27.83592 6.68062 27.83592 6.68062l5.01046-19.48514z" fill="#3f3d56" transform="translate(-102 -112.99772)"/><path d="m859.641 387.537 6.124 18.372 24.496-5.011-2.784-17.258z" fill="#3f3d56"/><path d="m971.66241 320.71465s-1.67015-1.11343-5.56718 1.11344-16.70155 3.34031-22.82545-3.34031-10.57765-12.24778-12.24778-11.13437-2.78359 13.918-2.78359 13.918l-5.56719 4.45375-32.84639 11.69104 2.78359 75.157 5.01046 17.25827s-3.897 13.36124 1.11344 21.15529-2.78359 10.57765-2.78359 10.57765-1.67016 2.22687-.55672 7.79406-1.11344 26.16576-1.11344 26.16576 47.32106 21.15529 96.869 2.78359l-5.56718-21.1553-2.78359-47.32105s2.78359-7.79406 2.22687-11.13437 16.70155-50.10464 16.70155-50.10464-2.78359-23.38217-17.25827-28.39264-16.70154-10.02093-16.70154-10.02093 6.68059-7.23736 3.897-9.46424z" fill="#d0cde1" transform="translate(-102 -112.99772)"/><path d="m926.38294 288.50786s-2.775-4.16248-1.70769-8.64516a26.20163 26.20163 0 0 0 .74711-7.79131 77.11619 77.11619 0 0 1 4.48264-11.31339c2.24134-4.05576 1.174-5.76344 8.21824-7.04421s4.16248-10.45957 22.73356-.53365a5.44631 5.44631 0 0 0 5.65671 2.13461c3.8423-.74711 5.22979 4.58941 5.22979 4.58941s2.56153-1.49423 3.5221.64038 7.8097-1.28115 7.8097 13.12745-7.79406 27.27919-7.79406 27.27919.57138-24.237-12.12953-26.69179-26.3624-9.60573-29.67105-.42692a69.97228 69.97228 0 0 1 -7.09752 14.67539z" fill="#2f2e41" transform="translate(-102 -112.99772)"/><ellipse cx="873.55944" cy="177.9325" fill="#ffb9b9" rx="2.50523" ry="3.34031"/><path d="m961.36332 737.95091 3.9153 11.74592s0 11.74592 3.91531 17.61888 7.83061 18.5977-7.83061 19.57652-22.513-4.89413-22.513-4.89413 2.93648-7.83061 0-10.76709 0-8.80944 0-8.80944l2.93648-23.49183z" fill="#2f2e41" transform="translate(-102 -112.99772)"/><path d="m885.0933 737.95091-3.9153 11.74592s0 11.74592-3.9153 17.61888-7.83061 18.5977 7.83061 19.57652 22.513-4.89413 22.513-4.89413-2.93648-7.83061 0-10.76709 0-8.80944 0-8.80944l-2.93648-23.49183z" fill="#2f2e41" transform="translate(-102 -112.99772)"/></svg>