<svg height="557.51874" viewBox="0 0 885.55805 557.51874" width="885.55805" xmlns="http://www.w3.org/2000/svg"><path d="m838.81222 592.35166c36.42578-91.06739 25.40683-192.75416-21.57259-270.85166l-491.77326 68.09166 471.2759-98.21687c-198.62291-247.68466-585.21339-83.39849-547.948 229.321z" fill="#e6e6e6" transform="translate(-157.22097 -171.24063)"/><path d="m76.75322 320.44454h626.52594v195.09542h-626.52594z" fill="#58bd98"/><path d="m408.706 467.89305c5.62128 4.36531 7.67682 5.77455 8.8739 5.59569 57.99957 16.88979 7.15438 36.68334-21.02622 3.08454z" fill="#ffb8b8" transform="translate(-157.22097 -171.24063)"/><path d="m60.099 475.093v39.654l28.55-1.586-7.93-41.24z" fill="#ffb8b8"/><path d="m218.713 475.093v39.654l-28.551-1.586 7.931-41.24z" fill="#ffb8b8"/><g transform="translate(-157.22097 -171.24063)"><path d="m288.69608 441.72171 42.82582-1.58614c98.7937 103.57113 61.43194 79.94854 58.68724 222.05982l-52.34267-15.86139 11.103-98.34078c.00564-.00376 2.9288-1.95254.499-1.99746-15.19648 5.22229-26.2843-59.43676-59.18629-51.93136-37.44073-1.791-43.536 53.75037-58.68724 53.92882l11.10306 98.34078-52.3427 15.86139c-5.8605-156.16587-34.583-120.8878 58.68724-222.05982z" fill="#2f2e41"/><path d="m225.25041 673.29838s-6.34456-12.68913-14.27527-6.34456-26.96441 25.37826-26.96441 25.37826-45.99811 20.61985-17.44756 33.309 52.34268-17.44756 52.34268-17.44756c27.194-5.67065 42.87962-9.3011 28.45819-38.964-8.18761 3.54302-19.77432 7.64487-22.11363 4.06886z" fill="#2f2e41"/><path d="m368.00316 673.29838s6.34456-12.68913 14.27527-6.34456 26.96441 25.37826 26.96441 25.37826 45.99811 20.61985 17.44756 33.309-52.34268-17.44756-52.34268-17.44756c-27.194-5.67065-42.87962-9.3011-28.45819-38.964 8.18761 3.54302 19.77432 7.64487 22.11363 4.06886z" fill="#2f2e41"/><path d="m331.5219 262.48771c-2.35907 39.4855-56.24811 36.00919-57.10087-.00032 2.35884-39.48519 56.24788-36.00888 57.10087.00032z" fill="#ffb8b8"/><path d="m290.28222 283.10755c13.87587 41.93775-18.88432 19.10541 26.96441 52.34267l17.44755-34.89511s-12.68913-4.75843-11.103-22.206z" fill="#ffb8b8"/><path d="m375.93387 306.89967-47.28234-10.79227c1.32987 28.5097-29.09516 22.7717-34.404 8.43062l-45.205 26.15378c18.97388 70.667 14.16522 73.58277-11.103 118.96062-9.64336 8.806 4.77846 13.85306 17.33355 9.03441 9.576-5.91024 14.43914-11.16237 24.7-9.82589 48.48518 10.0956 88.84834 12.47853 95.23609 8.53366 2.28576-3.27133-.06617-149.92705.7247-150.49493z" fill="#575a89"/><path d="m363.24473 310.072c1.58614 0 9.7566-3.84164 9.7566-3.84164 23.771-.40071 39.72292 159.49664 40.99993 164.04194l-15.86141 11.103-25.37827-65.03181z" fill="#575a89"/><path d="m252.21482 495.65052c.811 5.98616 2.1911 73.21058 26.27252 41.80855 3.15944-22.91-7.58221-29.74918-10.4111-44.98083z" fill="#ffb8b8"/><path d="m258.55939 330.6918-4.85992-2.69431c-13.02929-.42812-8.923 34.06114-14.43543 59.31894-4.50341 29.42466-3.22115 61.86983 2.06236 105.24733.46205 15.91777 28.9725 5.88989 33.0944 4.67291 0 0-9.51685-65.03181-4.75842-76.1348s-11.10299-90.41007-11.10299-90.41007z" fill="#575a89"/><path d="m330.274 234.81036a34.02906 34.02906 0 0 0 -19.357-14.798l-5.91821 4.73455 2.3009-5.52232a31.326 31.326 0 0 0 -5.84937-.33807l-5.32488 6.84631 2.20389-6.6118c-22.84908 2.4534-36.36771 28.68323-24.50556 47.04084 1.82984-5.62323 4.05069-10.89971 5.88053-16.523a16.64409 16.64409 0 0 0 4.33558.02112l2.22628-5.19453.62186 4.97483c6.90017-.60122 17.13483-1.921 23.67647-3.13031l-.63606-3.81638 3.80566 3.17141c2.00423-.46143 3.19416-.87977 3.09583-1.19955 4.86513 7.84319 9.68573 12.8528 14.55074 20.69594 1.84683-11.06305 5.10706-20.259-1.10666-30.35104z" fill="#2f2e41"/></g><path d="m527.41215 343.97895h138.36733v65.63579h-138.36733z" fill="#fff"/><path d="m553.57776 357.72699h86.0361v7.8701h-86.0361z" fill="#e6e6e6"/><path d="m553.57776 372.8618h86.0361v7.8701h-86.0361z" fill="#e6e6e6"/><path d="m553.57776 387.9966h86.0361v7.8701h-86.0361z" fill="#e6e6e6"/><path d="m406.916 359.57-4.501-7.795-4.5-7.796-4.501 7.796-4.501 7.795h4.836v22.574h8.331v-22.574z" fill="#fff"/><circle cx="711.88818" cy="483.13309" fill="#3f3d56" r="37.06013"/><circle cx="718.62639" cy="483.13309" fill="#e6e6e6" r="16.42438"/><path d="m688.515 509.033 80.859 33.691-2.527 8.002-46.536-5.265-78.753-34.954 43.798 5.054z" fill="#3f3d56"/><path d="m917.21059 712.44674 100.56476-329.88689 24.49016-43.49091.086-.4197c.079-.38371 1.877-9.47416-2.54574-16.05732a14.41879 14.41879 0 0 0 -9.7384-6.13447c-13.51631-2.53423-43.75393-3.78284-45.0342-3.83486l-.24142-.00987-.23935.03269c-.82624.11269-20.15088 2.93748-24.51936 19.8122l-21.0244 38.2637-.08267.27226-95.17721 312.90543 5.2379 1.59325 95.0945-312.63319 21.09473-38.39264.08555-.35286c3.089-12.6985 17.85682-15.66929 19.821-16.00921 3.089.13181 31.50885 1.39646 43.9756 3.73411a9.02851 9.02851 0 0 1 6.19122 3.7888c2.72588 4.03618 2.04358 9.97879 1.8034 11.541l-24.34 43.22463-.08719.28521-100.65196 330.1721z" fill="#3f3d56" transform="translate(-157.22097 -171.24063)"/><path d="m965.00564 374.70786h5.47477v73.80538h-5.47477z" fill="#3f3d56" transform="matrix(.17773504 -.98407838 .98407838 .17773504 233.46313 1119.54727)"/><path d="m951.12147 420.40497h5.47474v73.59863h-5.47474z" fill="#3f3d56" transform="matrix(.1999718 -.97980165 .97980165 .1999718 157.9235 1129.12816)"/><path d="m925.90857 503.38544h5.47463v73.22959h-5.47463z" fill="#3f3d56" transform="matrix(.27509809 -.96141616 .96141616 .27509809 -3.20879 1113.0217)"/><path d="m784.589 511.372 1.996-5.099-68.336-26.758-3.356-36.334 63.782 23.823 20.663 29.898 4.505-3.112-21.642-31.314-73.561-27.476 4.468 48.382z" fill="#3f3d56"/><circle cx="808.32876" cy="518.50867" fill="#3f3d56" r="37.06013"/><circle cx="818.01493" cy="520.19322" fill="#e6e6e6" r="16.42438"/></svg>