<svg height="581.58175" viewBox="0 0 807.85972 581.58175" width="807.85972" xmlns="http://www.w3.org/2000/svg"><path d="m901.32664 359.28559c-29.23789-21.85782-75.03171-42.52949-125.63917-56.71393-46.07822-12.91529-91.02143-19.15081-126.56032-17.55845l-.185-4.13293c35.96224-1.61055 81.37165 4.67732 127.862 17.70792 51.07935 14.31675 97.36929 35.23244 126.99984 57.384z" fill="#ccc" transform="translate(-196.07014 -159.20912)"/><path d="m898.29142 376.12168a137.67178 137.67178 0 0 1 -11.91446 56.2089q-.98672 2.22156-2.0561 4.40172a138.19449 138.19449 0 0 1 -262.37841-60.6106q0-4.79685.3268-9.51915.15517-2.4015.40132-4.774a138.18139 138.18139 0 0 1 275.62085 14.29316z" fill="#58bd98" transform="translate(-196.07014 -159.20912)"/><path d="m886.377 432.33058q-.98672 2.22156-2.0561 4.40172-6.05652.6578-12.75013.95563c-3.69431.16548-7.49618.24823-11.38077.24823-33.93136 0-74.7673-6.26336-116.48441-17.95442-46.49117-13.03142-88.55164-31.25886-118.43706-51.32724q-1.52654-1.02391-2.99928-2.05195.15516-2.4015.40132-4.774 2.37669 1.69405 4.90228 3.39228c29.53375 19.82846 71.17228 37.86147 117.24976 50.77708 41.353 11.59174 81.80426 17.80133 115.34672 17.80133q5.75241 0 11.21531-.2441 7.95542-.35994 14.99236-1.22456z" opacity=".1" transform="translate(-196.07014 -159.20912)"/><path d="m860.19056 434.62735c-33.93033.00081-74.76867-6.26321-116.48394-17.95538-46.4907-13.03061-88.553-31.25872-118.43869-51.32658-30.50945-20.48664-44.81593-40.67331-40.28428-56.84141 4.53149-16.16808 27.24578-25.97842 63.95844-27.6237l.185 4.13293c-17.14436.7682-31.11629 3.31645-41.52756 7.57379-10.386 4.24685-16.65492 9.97779-18.63248 17.03366-1.97757 7.05566.39956 15.20979 7.06516 24.23616 6.68194 9.04818 17.29424 18.48685 31.54191 28.054 29.53037 19.82933 71.17027 37.86269 117.24916 50.77777 41.35405 11.59075 81.80173 17.80186 115.34706 17.80265q5.74914 0 11.213-.24442c17.14453-.76841 31.11646-3.31645 41.528-7.57379 10.386-4.24685 16.65492-9.97758 18.63248-17.03345 3.55077-12.66943-7.18028-29.13164-30.21719-46.354l2.47736-3.31319c11.85458 8.86254 20.62986 17.59844 26.08223 25.96449 5.84508 8.96919 7.743 17.31987 5.64106 24.81932-4.53166 16.16808-27.24616 25.978-63.95844 27.62351-3.69422.16564-7.49384.24764-11.37828.24764z" fill="#ccc" transform="translate(-196.07014 -159.20912)"/><circle cx="567.70201" cy="52.23483" fill="#f2f2f2" r="1.58335"/><g fill="#ccc"><circle cx="357.64502" cy="119.80078" r="2.7239"/><circle cx="351.83942" cy="226.41262" r="5.38101"/><circle cx="674.84163" cy="61.73489" r="3.58631"/><circle cx="802.03694" cy="210.57918" r="5.82278"/><circle cx="756.50568" cy="117.57999" r="2.49824"/><circle cx="453.17346" cy="85.48506" r="3.89733"/><circle cx="747.76185" cy="198.77239" r="2.49824"/><circle cx="364.50618" cy="302.41316" r="3.10939"/><circle cx="427.31216" cy="345.69122" r="3.36729"/><path d="m525.2 6.645h-6.645v-6.645h-3.565v6.645h-6.648v3.568h6.648v6.645h3.565v-6.645h6.645z"/><path d="m679.342 366.201h-4.174v-4.172h-2.238v4.172h-4.172v2.239h4.172v4.172h2.238v-4.172h4.174z"/><path d="m775.646 344.844h-3.119v-3.119h-1.675v3.119h-3.119v1.675h3.119v3.119h1.675v-3.119h3.119z"/></g><circle cx="566.1187" cy="108.71737" opacity=".1" r="11.61119"/><circle cx="476.92363" cy="193.69017" opacity=".1" r="11.61119"/><circle cx="605.17451" cy="310.32987" opacity=".1" r="11.61119"/><circle cx="566.1187" cy="211.63475" opacity=".1" r="11.61119"/><circle cx="482.72921" cy="275.49629" opacity=".1" r="11.61119"/><circle cx="628.3969" cy="149.35654" opacity=".1" r="11.61119"/><circle cx="666.92492" cy="227.99597" opacity=".1" r="11.61119"/><circle cx="566.1187" cy="160.96774" fill="#fff" r="15.30567"/><path d="m762.18884 298.01a21.639 21.639 0 0 0 -21.639 21.639c0 11.9509 21.639 51.19479 21.639 51.19479s21.639-39.24389 21.639-51.19479a21.639 21.639 0 0 0 -21.639-21.639zm0 32.19467a10.02787 10.02787 0 1 1 10.02789-10.02787 10.02785 10.02785 0 0 1 -10.02789 10.02787z" fill="#ccc" transform="translate(-196.07014 -159.20912)"/><circle cx="482.72921" cy="226.41262" fill="#fff" r="15.30565"/><path d="m678.79935 363.45492a21.639 21.639 0 0 0 -21.639 21.639c0 11.9509 21.639 51.19478 21.639 51.19478s21.639-39.24388 21.639-51.19478a21.639 21.639 0 0 0 -21.639-21.639zm0 32.19466a10.02787 10.02787 0 1 1 10.02789-10.02786 10.02784 10.02784 0 0 1 -10.02789 10.02786z" fill="#ccc" transform="translate(-196.07014 -159.20912)"/><circle cx="666.92492" cy="178.9123" fill="#fff" r="15.30567"/><path d="m862.9951 315.9546a21.639 21.639 0 0 0 -21.639 21.63906c0 11.9509 21.639 51.19478 21.639 51.19478s21.639-39.24388 21.639-51.19478a21.639 21.639 0 0 0 -21.639-21.63906zm0 32.19466a10.02787 10.02787 0 1 1 10.0279-10.02786 10.02784 10.02784 0 0 1 -10.02789 10.02786z" fill="#ccc" transform="translate(-196.07014 -159.20912)"/><circle cx="566.1187" cy="58.05035" fill="#fff" r="15.30567"/><path d="m762.18884 195.09266a21.63905 21.63905 0 0 0 -21.639 21.639c0 11.95091 21.639 51.1948 21.639 51.1948s21.639-39.24389 21.639-51.1948a21.639 21.639 0 0 0 -21.639-21.639zm0 32.19467a10.02787 10.02787 0 1 1 10.02789-10.02787 10.02785 10.02785 0 0 1 -10.02789 10.02787z" fill="#ccc" transform="translate(-196.07014 -159.20912)"/><circle cx="605.17451" cy="261.2462" fill="#fff" r="15.30567"/><path d="m801.24465 398.2885a21.639 21.639 0 0 0 -21.639 21.639c0 11.9509 21.639 51.19478 21.639 51.19478s21.639-39.24388 21.639-51.19478a21.639 21.639 0 0 0 -21.639-21.639zm0 32.19467a10.02787 10.02787 0 1 1 10.02789-10.02787 10.02785 10.02785 0 0 1 -10.02789 10.02787z" fill="#3f3d56" transform="translate(-196.07014 -159.20912)"/><circle cx="476.92363" cy="143.55094" fill="#fff" r="15.30567"/><path d="m672.99378 280.59326a21.639 21.639 0 0 0 -21.639 21.639c0 11.9509 21.639 51.19479 21.639 51.19479s21.639-39.24389 21.639-51.19479a21.639 21.639 0 0 0 -21.639-21.639zm0 32.19466a10.02787 10.02787 0 1 1 10.02788-10.02787 10.02786 10.02786 0 0 1 -10.02788 10.02787z" fill="#3f3d56" transform="translate(-196.07014 -159.20912)"/><circle cx="628.3969" cy="100.80065" fill="#fff" r="15.30567"/><path d="m824.467 237.843a21.639 21.639 0 0 0 -21.639 21.639c0 11.95091 21.639 51.19479 21.639 51.19479s21.639-39.24389 21.639-51.1948a21.639 21.639 0 0 0 -21.639-21.63899zm0 32.19467a10.02787 10.02787 0 1 1 10.02788-10.02787 10.02786 10.02786 0 0 1 -10.02788 10.02782z" fill="#3f3d56" transform="translate(-196.07014 -159.20912)"/><path d="m188.862 569.715 12.182-1.383.465-47.644-17.979 2.041z" fill="#ffb8b8"/><path d="m382.64322 723.51987h38.53073a0 0 0 0 1 0 0v14.88687a0 0 0 0 1 0 0h-23.64388a14.88686 14.88686 0 0 1 -14.88686-14.88686 0 0 0 0 1 .00001-.00001z" fill="#2f2e41" transform="matrix(-.99362301 .11275337 -.11275337 -.99362301 687.60258 1252.73963)"/><path d="m63.582 568.954 12.26-.001 5.832-47.288-18.094.001z" fill="#ffb8b8"/><path d="m257.02549 724.65948h38.53073a0 0 0 0 1 0 0v14.88687a0 0 0 0 1 0 0h-23.64387a14.88686 14.88686 0 0 1 -14.88686-14.88686 0 0 0 0 1 0-.00001z" fill="#2f2e41" transform="matrix(-1 .00004573 -.00004573 -1 356.54499 1304.98409)"/><path d="m347.61369 516.69512 7 22.76923 38 82.23077 10 78-23 1-14-72-48-52-42 136-19-2s16-176 38-194c0 0 36-17 53 0z" fill="#2f2e41" transform="translate(-196.07014 -159.20912)"/><circle cx="120.49237" cy="234.6789" fill="#ffb8b8" r="24.56103"/><path d="m350.11369 521.19512s3-102-39-95-24.5 105.5-24.5 105.5 9 18 31-2 32.5-8.5 32.5-8.5z" fill="#ccc" transform="translate(-196.07014 -159.20912)"/><path d="m96.044 309.986 9.883 37.883 15.057 15.058-20.94-6.941z" opacity=".2"/><path d="m350.424 564.33339a10.05576 10.05576 0 0 1 -5.277-14.48823l-23.35887-27.04335 18.41436-2.39689 19.35886 26.04829a10.11028 10.11028 0 0 1 -9.13733 17.88018z" fill="#ffb8b8" transform="translate(-196.07014 -159.20912)"/><path d="m321.98365 446.97089 2.63 51.72423 31 40-13 10-42-42s-15-51-4-66c4.125-5.625 8.67188-7.17188 12.74414-6.90821a13.78031 13.78031 0 0 1 12.62586 13.18398z" fill="#ccc" transform="translate(-196.07014 -159.20912)"/><path d="m313.64139 419.69532a1.01358 1.01358 0 0 0 -.14318-1.61666 14.28328 14.28328 0 0 1 1.37609-25.03743c7.22106-3.44291 17.00605-.76444 22.34414-7.38039a12.40873 12.40873 0 0 0 2.30264-10.0772c-1.15182-6.24874-5.8494-10.8893-11.11025-14.06959a40.429 40.429 0 0 0 -61.08911 39.13442c.67906 6.01412 2.53479 12.75778-1.04129 17.64065-3.14734 4.29745-9.08815 5.10326-14.30673 6.17108-11.19313 2.29031-21.99165 7.57389-29.58753 16.1082s-11.64806 20.50823-9.35788 31.70139 11.47806 21.03009 22.77061 22.76506c9.19165 1.41219 18.68267-2.4913 25.43252-8.88821s11.01639-15.03534 13.70753-23.93695c3.19415-10.56543 4.4541-21.95037 10.22083-31.36184 5.64312-9.20972 17.80394-15.81164 27.33492-11.01525a1.022 1.022 0 0 0 1.14669-.13728z" fill="#2f2e41" transform="translate(-196.07014 -159.20912)"/><path d="m504.07014 740.79088h-307a1 1 0 0 1 0-2h307a1 1 0 1 1 0 2z" fill="#3f3d56" transform="translate(-196.07014 -159.20912)"/></svg>